<?xml version="1.0" encoding="UTF-8"?><svg id="a" xmlns="http://www.w3.org/2000/svg" viewBox="0 0 272.31 97.69"><defs><style>.c{fill:#fff;stroke-width:0px;}</style></defs><path class="c" d="m68.94,54.44c-.09,1.3-.07,3.37-.39,5.39-.72,4.66-4.5,7.28-7.64,5.36-1.35-.83-2.53-1.95-3.94-3.05-.94,1.83-1.9,4.29-3.39,6.37-.88,1.23-2.76,2.76-3.87,2.54-1.22-.24-2.61-2.21-2.96-3.66-.59-2.43-.41-5.04-.58-7.98-.69.78-1.28,1.37-1.78,2.03-3.16,4.12-6.15,8.38-9.49,12.36-5.46,6.5-12.5,7.79-20.43,5.55-1.11-.31-2.23-.59-3.36-.84-.19-.04-.43.1-1.02.26.14,3.2.29,6.49.43,9.78-.41.06-.82.11-1.23.17-.32-1.07-.76-2.12-.94-3.21-.2-1.25-.25-2.54-.22-3.81.09-3.37-1.11-5.51-4.85-5.54-.63,0-1.26-.37-2.58-.78,1.12-1.44,1.79-2.79,2.87-3.59,2.83-2.1,3.46-4.78,3.38-8.17-.18-8.43-.04-16.88.09-25.32.03-1.98.53-3.95.81-5.93.39.03.78.06,1.17.08v32.47l1.07.27c11.94-12.29,21.67-25.93,25.09-43.37.4.08.8.16,1.2.24-.11,1.41-.03,2.87-.36,4.24-3.01,12.68-9.68,23.41-17.92,33.27-2,2.39-4.07,4.75-6.33,6.9-2.09,1.98-2.78,4.29-2.06,6.9.31,1.14,1.26,2.65,2.24,2.96,10.93,3.52,15.86,2.91,21.82-4.57,5.5-6.91,10.04-14.59,15.03-21.91.64-.95,1.43-1.8,2.6-2.5-2.31,7.22-4.72,14.27-1.64,22.49,4.7-4.58,5.27-10.48,8.64-15.29.34,1.45.62,2.92,1.04,4.35.64,2.19,1.08,5.07,4.1,4.65,2.82-.4,2.98-3.22,3.06-5.54.07-2.19-.17-4.38-.23-6.58-.02-.73.12-1.45.2-2.34,1.97.93,3.52,1.98,5.23,2.42,2.91.74,5.18-.78,6.98-2.9,1.41-1.66,2.72-2.08,4.74-.9,3.42,1.99,6.81,1.13,10.3-.32,8.42-3.51,16.75-7.4,25.44-10.05,17.54-5.36,34.83-2.45,51.77,3.3,14.38,4.88,28.97,7.99,44.27,6.49,24.19-2.37,42.48-13.32,52.72-36.07.18-.41.44-.79.87-1.06-2.3,8.48-6.74,15.69-13.24,21.6-10.98,9.98-24.08,15.4-38.63,17.4-16.02,2.19-31.6.51-46.58-5.88-24.1-10.29-47.64-7.98-70.75,3.29-1.87.91-3.69,2.05-5.67,2.58-2.52.67-5.34,1.55-7.74,1.02-3.29-.73-5.48-.45-8.22,1.8-2.04,1.67-5.47,1.67-9.11,2.63Z"/><g id="b"><path class="c" d="m87.88,69.54h1.85c1.15,2.87,2.31,5.76,3.54,8.83.82-1.91,1.58-3.67,2.35-5.44-.46-1.12-.92-2.23-1.39-3.39h1.74c1.17,2.89,2.33,5.78,3.55,8.8,1.24-3.02,2.42-5.9,3.61-8.79h1.72c-1.73,4.07-3.44,8.1-5.24,12.33-.23-.31-.4-.48-.48-.67-.81-1.9-1.6-3.81-2.4-5.71-.09-.22-.19-.44-.31-.7-1.04,2.33-2.06,4.6-3.09,6.87-.01.02-.12,0-.28,0-1.7-4-3.42-8.03-5.16-12.12Z"/><path class="c" d="m164.9,78.1c.39-.61.74-1.16,1.09-1.72,1.37-2.18,2.74-4.36,4.12-6.53.13-.21.34-.36.51-.54.06.04.12.07.18.11.23,3.97.46,7.93.69,11.95h-1.65c-.13-2.48-.25-4.97-.38-7.45-.04-.03-.08-.05-.12-.08-1.45,2.26-2.91,4.52-4.48,6.96-1.56-2.44-3.02-4.72-4.47-6.99l-.13.04c-.13,2.49-.26,4.99-.39,7.52h-1.65c.23-3.98.46-7.96.69-11.94.05-.04.11-.08.16-.11.17.17.39.32.52.52,1.63,2.53,3.25,5.07,4.87,7.61.13.2.26.39.44.65Z"/><path class="c" d="m154.55,81.4h-1.88c-.43-.94-.86-1.89-1.31-2.87h-5.47c-.43.93-.88,1.9-1.32,2.86h-1.76c1.93-4.06,3.83-8.06,5.74-12.07.09,0,.18,0,.27,0,1.9,3.99,3.79,7.98,5.74,12.07Zm-7.98-4.38h4.12c-.68-1.54-1.34-3.01-2.04-4.6-.72,1.59-1.38,3.06-2.08,4.6Z"/><path class="c" d="m182.71,71.5c-.69-.21-1.28-.5-1.9-.55-.7-.06-1.44.02-2.13.17-.6.13-.96.61-1.05,1.23-.08.62.23,1.07.71,1.39.42.27.88.49,1.34.69.7.31,1.43.57,2.12.9,1.08.52,1.95,1.25,1.98,2.56.03,1.43-.68,2.47-1.88,3.18-1.41.82-2.91.76-4.41.3-.77-.23-1.49-.62-2.32-.98.37-.53.66-.96.87-1.26,1.01.37,1.91.78,2.85,1.03.8.22,1.62.07,2.34-.41,1.07-.72,1.14-2,.09-2.75-.53-.38-1.15-.63-1.74-.92-.69-.34-1.42-.6-2.08-.99-2.2-1.28-2.16-3.86.06-5.11,1.54-.86,4.15-.75,5.72.29-.19.4-.38.81-.59,1.24Z"/><path class="c" d="m114.05,69.54h1.56v10.43h6.73v1.41h-8.29v-11.84Z"/><path class="c" d="m127.55,79.99h6.73v1.39h-8.29v-11.81h1.56v10.43Z"/><path class="c" d="m109.67,81.39h-1.52v-11.83h1.52v11.83Z"/><path class="c" d="m139.53,81.39h-1.52v-11.83h1.52v11.83Z"/></g></svg>