<?xml version="1.0" encoding="UTF-8"?><svg id="a" xmlns="http://www.w3.org/2000/svg" viewBox="0 0 389.26 367.24"><defs><style>.b{fill:none;stroke:#7d212b;stroke-miterlimit:10;stroke-width:1.31px;}.c{fill:#7d212b;stroke-width:0px;}</style></defs><path class="c" d="m102.52,6.63c-.04-1.34-.22-2.67-.3-4.01-.02-.34.06-.88.28-1,.24-.13.75.02,1.03.22,1,.72,1.93,1.54,2.93,2.26.92.66,1.92,1.01,3.06.47,2.58-1.24,5.23-1.33,7.93-.42,1.51.51,2.98,1.15,4.51,1.6,5.39,1.59,10.48,1.06,15.01-2.5,1.25-.99,2.35-2.17,3.5-3.26-1.55,4.01-4.58,6.8-8.63,8.03-2.89.88-5.85.95-8.83.88-.41,0-.82,0-1.22,0-.02.12-.05.24-.07.35.35.15.69.36,1.06.45,2.21.55,4.43,1.07,6.65,1.61.37.09.71.28,1.07.43-.03.12-.07.24-.1.35-2.54-.28-5.09-.56-7.66-.84v.99c-1.23-.63-2.41-1.23-3.58-1.83-.11.13-.23.26-.34.39.35.22.71.43,1.06.65,6.77,4.35,13.53,8.73,20.33,13.03,2.66,1.68,5.31,3.31,6.66,6.34,1.03,2.3,1.84,4.58.5,7.07-2.39,4.43-8.31,5.92-12.63,3.28-1.52-.93-3.19-1.92-4.9-2.19-4.25-.66-8.56-.93-12.85-1.34-1.36-.13-2.73-.18-4.21-.28.62,2.14,1.24,4.14,1.77,6.16,2.85,11,9.05,19.39,19.22,24.7,2.09,1.09,4.22,2.11,6.28,3.25,2.79,1.54,4.63,3.84,5.5,6.96.69,2.47,1.56,4.88,2.38,7.4.32-.19.54-.31.74-.45,4.6-3.22,9.2-6.46,13.81-9.66,2.36-1.64,4.33-1.64,6.48-.36,1.09.65,2.32,1.13,3.56,1.44,1.98.48,2.98,1.41,3.23,3.42.25,2.01.4,4.04.75,6.03.97,5.49,2.82,10.71,5.07,15.8,1.85,4.18,1.97,8.34-.35,12.43-.73,1.29-1.35,2.65-2.07,3.95-2.45,4.41-4.91,8.8-7.38,13.2-.59,1.05-1.51,1.57-2.5,1.27-.88-.27-1.33.1-1.82.72-2.14,2.66-4.27,5.31-6.48,7.9-1.18,1.39-2.43,1.22-3.11-.44-1.18-2.88-2.25-5.81-3.26-8.75-.42-1.23-.24-2.5.42-3.67,1.11-1.96,2.83-2.94,5.01-3.2.87-.11,1.74-.2,2.83-.33-.7-.42-1.2-.69-1.67-1.02-1.06-.74-1.19-1.25-.52-2.38.35-.59.79-1.13,1.18-1.69,1.61-2.26,1.94-4.9,2.1-7.54.17-2.77-.07-5.5-1.22-8.1-.93-2.1-4.08-3.08-5.95-1.45-2.26,1.97-4.79,3.65-7.3,5.3-1.91,1.26-3.14,2.91-3.94,5.03-1.27,3.32-2.6,6.62-4.03,9.86-3.31,7.47-7.13,14.67-11.57,21.54-3.71,5.73-7.7,11.26-12.35,16.26-3.85,4.14-7.83,8.16-11.79,12.21-1.53,1.56-2.37,3.3-1.72,5.5.61,2.08,1.2,4.18,1.93,6.22,1.1,3.03,1.92,6.15,1.62,9.35-.27,2.93-.83,5.89-1.68,8.71-3.91,12.96-10.24,24.67-18.73,35.21-2.33,2.89-3.92,6.15-4.06,9.89-.14,3.87-.16,7.75.02,11.62.18,3.91,1.2,7.69,3.12,11.1,4.63,8.22,9.37,16.37,14.08,24.53,1.18,2.04,2.49,4,3.64,6.05.7,1.26-.02,2.61-1.39,2.61-3.7,0-7.4-.07-11.09-.23-1.02-.04-1.92-.58-2.25-1.74-.37-1.31-.91-1.68-2.27-1.69-1.81-.01-3.63,0-5.44-.04-1.82-.04-2.72-1.07-2.59-2.87.05-.72.1-1.45.12-2.17.04-1.92-.71-3.41-2.3-4.53-2.35-1.66-2.8-2.95-2.14-5.8,1.59-6.92,1.16-13.61-2.28-19.94-1.83-3.36-3.15-6.92-4.18-10.59-.91-3.24-1.92-6.46-2.72-9.73-.31-1.25-.47-2.71-.15-3.92.89-3.32,1.95-6.6,3.16-9.82,2-5.3,1.62-10.25-1.54-15.02-2.78-4.2-5.49-8.46-8.06-12.79-3.46-5.82-7.18-11.5-9.86-17.76-.03-.06-.13-.1-.2-.15-.9,3.78-.47,7.44.56,11.08.73,2.58,1.54,5.14,2.08,7.76,1.06,5.1,2.21,10.19,2.83,15.35.49,4.11.39,8.32.3,12.48-.12,5.04-1.09,9.94-3.27,14.53-.58,1.23-1.3,2.4-1.96,3.6.66-6.92,1.7-13.77-2.42-20.03-.09.67-.15,1.34-.09,2,.16,1.77.46,3.53.54,5.3.37,7.78-.32,15.43-3.17,22.77-3.36,8.65-9.03,15.21-17.59,19.06-3.24,1.46-6.65,2.31-10.53,2.36.49-.29.73-.43.97-.56,2.55-1.46,5.13-2.86,7.64-4.39,3.78-2.3,6.06-5.69,7.12-10.15-.4.25-.66.37-.87.54-3.25,2.68-7.05,4.25-10.98,5.58-3.26,1.11-6.53,2.18-9.72,3.47-2.82,1.14-3.65,3.07-2.98,6.06.13.59.22,1.2.36,2-3.36-3.2-3.99-8.17-1.49-11.91,1.42-2.13,3.16-4.06,4.69-6.12,4.1-5.53,8.26-11.03,12.23-16.65,2.7-3.81,3.11-8.17,2.3-13.01-.39,1.99-.66,3.69-1.06,5.35-2.64,10.86-9.06,18.79-18.85,24.04-1.58.85-3.27,1.43-5.42,1.48.84-.57,1.42-.98,2.01-1.36,3.27-2.09,6.15-4.62,8.48-7.72,4.39-5.82,5.86-12.48,5.65-19.66-.18-6.23-.36-12.47-.25-18.7.09-5.39,1.16-10.67,3.12-15.7,1.33-3.41,3.04-6.68,4.55-9.95-4.89,2.63-8.68,6.25-9.24,12.41-.08-1.39-.09-2.76.12-4.09.73-4.65,3.55-7.91,7.21-10.57,1.17-.85,2.4-1.62,3.6-2.43-.02-.05-.05-.1-.07-.14-1.75.19-3.5.38-5.24.58-.02-.11-.04-.23-.06-.34,1.13-.42,2.25-.84,3.56-1.33-.82-.41-1.46-.72-2.36-1.17,5.61-.58,10.18-2.74,13.99-6.35,3.38-3.2,6.86-6.23,10.82-8.7,1.64-1.02,2.88-2.37,3.19-4.43.14-.91.58-1.79.94-2.66,1.85-4.57,4.73-8.5,8.01-12.09,5.44-5.93,10.99-11.76,16.66-17.48,4.02-4.06,7.33-8.49,9.02-14.02.99-3.21,1.5-6.46,1.06-10.07-.18.46-.28.71-.36.96-2.13,6.23-4.99,12.06-9.42,17.01-3.03,3.39-6.54,6.05-11.09,7.06-2.02.45-4.02.41-6.1-.3,7.01-2.96,12.82-7,15.66-14.27-.88.26-1.66.63-2.43,1.02-4.13,2.13-8.29,4.15-12.8,5.41-2.32.65-4.56,1.64-6.78,2.6-1.24.53-1.93,1.66-2.07,3-.09.85.03,1.73.09,2.6.05.63.15,1.26.23,1.88-2.75-2.25-4.11-6.65-2.28-9.98.96-1.74,1.95-3.5,3.19-5.05,2.99-3.73,6.16-7.33,9.2-11.01.8-.97,1.43-2.08,2.14-3.13-.11-.08-.21-.16-.32-.24-.23.2-.47.39-.7.59-2.12,1.98-4.22,3.98-6.37,5.93-2.87,2.61-6.03,4.76-9.8,5.86-.65.19-1.33.27-1.99.4,2.09-1.9,4.26-3.52,6.31-5.29,3.69-3.2,6.55-7,7.61-11.89.97-4.48.4-9.01.27-13.67-1.05.51-1.99.97-2.99,1.46,1.13-2.27,2.28-4.41,3.28-6.61,1.06-2.34.79-4.77.09-7.24-1.5,3.65-3,7.31-4.51,10.96l-.5-.18c3.4-11.48,6.79-22.96,10.19-34.44-.07-.03-.14-.06-.21-.09-2.19,3.34-4.37,6.68-6.56,10.03,2.3-10.38,7.95-18.74,15.76-26.08-2.82.63-5.31,1.37-7.51,2.85-3.4,2.28-6,5.34-8.22,8.73-.36.55-.7,1.1-1.05,1.65-.34.54-.68,1.08-1.02,1.62,4-15.75,13.57-27.59,26.01-37.47-2.23,1.09-4.46,2.18-6.7,3.27,5.96-5.84,12.97-9.45,21.49-10.05-.23-2.44-1.12-4.95.93-7.01,3.38.59,4.35,3.84,6.6,6.1.19-.57.5-1.04.48-1.51Z"/><path class="c" d="m386.5,293.39c-4.21,8.04-10.72,14.93-31.77,14.93-30.24,0-44.4-19.52-50.91-43.63-4.98-18.75-8.42-33.3-11.48-47.08-9.19-42.49-21.82-47.08-41.72-47.08h-21.82v130.9h24.88v2.3h-95.69v-2.3h24.88V33.5h90.33c37.13,0,81.91,14.54,81.91,69.66,0,42.87-38.66,66.22-87.27,67.36v.38c46.31,6.12,59.71,23.73,68.13,50.14,5.74,18.37,13.4,41.72,17.22,52.82,5.74,16.46,9.57,28.71,18.37,28.71,4.98,0,9.19-3.44,13.01-10.33l1.91,1.15Zm-118.65-125.16c28.71,0,40.57-14.93,40.57-64.68,0-52.44-15.69-67.75-36.36-67.75h-43.25v132.43h39.04Z"/><line class="b" x1="389.26" y1="325.35" y2="325.35"/><path class="c" d="m10.91,356.64h-2.58v7.67c0,.51.24.86.71,1.05.48.19,1.2.34,2.18.45.28.05.42.24.42.59,0,.16-.02.36-.07.59-.63-.05-1.39-.09-2.28-.12-.89-.03-1.77-.05-2.63-.05-.6,0-1.3.02-2.09.05-.79.04-1.53.08-2.23.12-.05-.23-.07-.42-.07-.56,0-.33.13-.51.38-.56.88-.14,1.5-.31,1.86-.51.36-.2.54-.53.54-.99v-17.74c0-.44-.17-.77-.51-.99-.34-.22-.99-.39-1.97-.51-.23-.02-.35-.22-.35-.59,0-.14.02-.33.07-.56.7.05,1.42.09,2.16.12.74.04,1.45.05,2.13.05h4.71c2.51,0,4.4.55,5.68,1.66,1.28,1.1,1.92,2.6,1.92,4.48,0,.51-.09,1.05-.26,1.6s-.44,1.1-.8,1.64c-.36.53-.82,1.03-1.39,1.48-.57.45-1.24.82-2,1.1l5.82,8.09c.44.6.93,1.02,1.46,1.25.53.23,1.03.41,1.5.52.21.05.31.21.31.49,0,.19-.02.39-.07.63-.53-.05-1.18-.09-1.95-.12-.77-.03-1.48-.05-2.13-.05-.49,0-.98-.21-1.48-.63-.5-.42-.97-.95-1.41-1.6l-5.58-8.05Zm-.73-1.43c1.63,0,2.88-.34,3.76-1.03.88-.68,1.32-1.89,1.32-3.61,0-.72-.09-1.38-.28-1.99-.19-.6-.48-1.13-.89-1.57-.41-.44-.94-.79-1.6-1.05-.66-.26-1.47-.38-2.42-.38h-1.74v9.62h1.85Z"/><path class="c" d="m40.18,358.52h-7.77l-2.23,5.61c-.12.28-.17.51-.17.7,0,.49.71.84,2.13,1.05.16.02.27.09.33.19.06.1.09.23.09.37s-.02.33-.07.56c-.63-.05-1.29-.09-1.99-.12-.7-.03-1.38-.05-2.06-.05-.46,0-.94.01-1.43.04-.49.02-1,.07-1.53.14-.05-.19-.07-.37-.07-.56,0-.16.03-.3.09-.42.06-.12.18-.19.37-.21.72-.12,1.26-.26,1.62-.44.36-.17.62-.45.78-.82l8.4-20.21c.16-.39.38-.59.66-.59.09,0,.23.02.42.07l8.43,20.84c.14.33.45.58.94.77.49.19.96.31,1.43.38.14.05.25.11.33.19s.12.23.12.44c0,.14-.02.33-.07.56-.74-.05-1.48-.09-2.2-.12-.72-.03-1.39-.05-2.02-.05s-1.39.02-2.23.05c-.84.04-1.59.08-2.27.12-.05-.23-.07-.42-.07-.56,0-.21.04-.35.12-.44.08-.08.16-.12.23-.12.6-.12,1.09-.25,1.46-.4.37-.15.56-.38.56-.68,0-.14-.05-.31-.14-.52l-2.2-5.75Zm-.56-1.43l-3.24-8.54-3.38,8.54h6.62Z"/><path class="c" d="m58.86,345.6v8.92h5.44c.46,0,.79-.23.99-.68.2-.45.35-1,.47-1.66.07-.3.28-.45.63-.45.07,0,.16.01.28.04s.21.05.28.07c-.05.51-.09,1.09-.12,1.74s-.05,1.22-.05,1.71c0,.4.01.88.04,1.45.02.57.07,1.21.14,1.93-.19.05-.36.07-.52.07-.37,0-.59-.15-.66-.45-.12-.65-.27-1.2-.47-1.66-.2-.45-.53-.68-.99-.68h-5.44v8.22c0,.49.31.81.94.98.63.16,1.66.24,3.1.24h1.92c.67,0,1.26-.1,1.76-.3.5-.2.94-.46,1.33-.8.38-.34.73-.74,1.03-1.2.3-.46.59-.98.87-1.53.07-.16.24-.24.52-.24.12,0,.24.04.37.1.13.07.25.14.37.21-.21.44-.39.97-.54,1.59-.15.62-.3,1.2-.44,1.76-.14.56-.28,1.03-.44,1.43-.15.4-.34.59-.58.59-.19,0-.45-.01-.8-.03-.35-.02-.73-.04-1.13-.05-.41-.01-.82-.03-1.24-.05-.42-.02-.78-.04-1.08-.04h-7.63c-.67,0-1.39.02-2.16.05-.77.04-1.5.08-2.2.12-.05-.23-.07-.42-.07-.56,0-.33.12-.51.35-.56.88-.16,1.52-.34,1.9-.52.38-.19.58-.51.58-.98v-17.74c0-.46-.17-.78-.51-.96s-.99-.35-1.97-.54c-.23-.05-.35-.24-.35-.59,0-.12,0-.21.02-.3s.03-.17.05-.26c1,.07,1.84.12,2.51.14.67.02,1.28.04,1.81.04h6.87c1.05,0,1.95-.04,2.72-.1s1.28-.1,1.53-.1c.3,0,.51.19.61.58.11.38.19.84.26,1.38.07.53.15,1.1.24,1.71.09.6.27,1.12.52,1.53-.19.14-.4.21-.63.21-.3,0-.5-.1-.59-.31-.28-.6-.55-1.12-.8-1.55-.26-.43-.55-.78-.89-1.06s-.74-.49-1.22-.63c-.48-.14-1.06-.21-1.76-.21h-5.16Z"/><path class="c" d="m93.81,356.64h-2.58v7.67c0,.51.24.86.71,1.05.48.19,1.2.34,2.18.45.28.05.42.24.42.59,0,.16-.02.36-.07.59-.63-.05-1.39-.09-2.28-.12-.9-.03-1.77-.05-2.63-.05-.6,0-1.3.02-2.09.05-.79.04-1.53.08-2.23.12-.05-.23-.07-.42-.07-.56,0-.33.13-.51.38-.56.88-.14,1.5-.31,1.86-.51.36-.2.54-.53.54-.99v-17.74c0-.44-.17-.77-.51-.99-.34-.22-.99-.39-1.97-.51-.23-.02-.35-.22-.35-.59,0-.14.02-.33.07-.56.7.05,1.42.09,2.16.12.74.04,1.45.05,2.13.05h4.7c2.51,0,4.4.55,5.68,1.66,1.28,1.1,1.92,2.6,1.92,4.48,0,.51-.09,1.05-.26,1.6s-.44,1.1-.8,1.64c-.36.53-.83,1.03-1.39,1.48-.57.45-1.24.82-2,1.1l5.82,8.09c.44.6.93,1.02,1.46,1.25.53.23,1.03.41,1.5.52.21.05.31.21.31.49,0,.19-.02.39-.07.63-.53-.05-1.19-.09-1.95-.12-.77-.03-1.48-.05-2.13-.05-.49,0-.98-.21-1.48-.63-.5-.42-.97-.95-1.41-1.6l-5.58-8.05Zm-.73-1.43c1.63,0,2.88-.34,3.76-1.03.88-.68,1.32-1.89,1.32-3.61,0-.72-.09-1.38-.28-1.99-.19-.6-.48-1.13-.89-1.57-.41-.44-.94-.79-1.6-1.05-.66-.26-1.47-.38-2.42-.38h-1.74v9.62h1.85Z"/><path class="c" d="m123.09,358.52h-7.77l-2.23,5.61c-.12.28-.17.51-.17.7,0,.49.71.84,2.13,1.05.16.02.27.09.33.19s.09.23.09.37-.02.33-.07.56c-.63-.05-1.29-.09-1.99-.12-.7-.03-1.38-.05-2.06-.05-.46,0-.94.01-1.43.04-.49.02-1,.07-1.53.14-.05-.19-.07-.37-.07-.56,0-.16.03-.3.09-.42.06-.12.18-.19.37-.21.72-.12,1.26-.26,1.62-.44.36-.17.62-.45.78-.82l8.4-20.21c.16-.39.38-.59.66-.59.09,0,.23.02.42.07l8.43,20.84c.14.33.45.58.94.77.49.19.96.31,1.43.38.14.05.25.11.33.19.08.08.12.23.12.44,0,.14-.02.33-.07.56-.74-.05-1.48-.09-2.2-.12-.72-.03-1.39-.05-2.02-.05s-1.39.02-2.23.05c-.84.04-1.59.08-2.27.12-.05-.23-.07-.42-.07-.56,0-.21.04-.35.12-.44s.16-.12.23-.12c.6-.12,1.09-.25,1.46-.4.37-.15.56-.38.56-.68,0-.14-.05-.31-.14-.52l-2.2-5.75Zm-.56-1.43l-3.24-8.54-3.38,8.54h6.62Z"/><path class="c" d="m145.7,367.24c-1.95,0-3.66-.3-5.12-.91s-2.68-1.43-3.64-2.49c-.96-1.06-1.68-2.3-2.16-3.73-.48-1.43-.72-2.97-.72-4.62,0-1.37.24-2.75.72-4.15.48-1.39,1.2-2.65,2.16-3.78.96-1.13,2.18-2.04,3.64-2.75,1.46-.71,3.17-1.06,5.12-1.06.77,0,1.47.02,2.11.05.64.03,1.25.09,1.83.17.58.08,1.15.19,1.71.31.56.13,1.14.27,1.74.44.02.63.11,1.39.24,2.3.14.91.32,1.82.56,2.75-.19.09-.37.14-.56.14s-.35-.02-.51-.07c-.15-.05-.25-.17-.3-.38-.42-1.53-1.08-2.63-1.99-3.28-.91-.65-2.22-.98-3.94-.98-1.44,0-2.71.23-3.82.7-1.1.47-2.03,1.12-2.79,1.95-.76.84-1.32,1.84-1.71,3.01-.38,1.17-.58,2.48-.58,3.92,0,1.6.24,3.08.73,4.43.49,1.35,1.14,2.51,1.97,3.48.82.98,1.79,1.73,2.89,2.27,1.1.53,2.28.8,3.54.8,1,0,1.84-.1,2.53-.3.68-.2,1.25-.48,1.71-.85.45-.37.84-.83,1.15-1.38.31-.55.61-1.17.89-1.86.16-.35.44-.52.84-.52.12,0,.24.02.37.05.13.04.23.08.3.12-.28.81-.56,1.71-.84,2.68-.28.98-.51,1.95-.7,2.93-1.14.19-2.3.33-3.48.44-1.19.1-2.49.16-3.9.16Z"/><path class="c" d="m165.32,364.38c0,.46.16.78.49.96.32.17.93.35,1.81.54.23.05.35.23.35.56,0,.14-.02.33-.07.56-.72-.05-1.44-.09-2.16-.12-.72-.03-1.41-.05-2.06-.05s-1.32.02-2.07.05c-.76.04-1.47.08-2.14.12-.05-.23-.07-.42-.07-.56,0-.33.12-.51.35-.56.88-.16,1.49-.34,1.81-.52.33-.19.49-.51.49-.98v-17.74c0-.46-.16-.8-.49-.99-.33-.2-.93-.37-1.81-.51-.14-.02-.23-.09-.28-.21-.05-.12-.07-.24-.07-.38s.02-.33.07-.56c.7.05,1.42.09,2.18.12.75.04,1.43.05,2.04.05s1.25-.02,2-.05c.75-.03,1.49-.07,2.21-.12.05.23.07.42.07.56,0,.35-.12.55-.35.59-.88.14-1.49.31-1.81.51-.33.2-.49.53-.49.99v17.74Z"/><path class="c" d="m191.21,361.28v-14.57c0-.51-.19-.87-.56-1.08-.37-.21-1-.37-1.88-.49-.26-.02-.38-.22-.38-.59,0-.14.02-.33.07-.56.58.05,1.17.09,1.78.12.6.04,1.17.05,1.71.05s1.05-.02,1.6-.05c.56-.03,1.1-.07,1.64-.12.05.23.07.42.07.56,0,.37-.12.57-.35.59-.79.12-1.33.28-1.62.49-.29.21-.43.55-.43,1.01v20.53s-.13.04-.24.05c-.12.01-.21.02-.28.02-.16,0-.31-.04-.45-.12-.14-.08-.3-.25-.49-.51l-14.15-18.64v16.41c0,.46.16.79.49.98.33.19.95.36,1.88.52.23.05.35.23.35.56,0,.14-.02.33-.07.56-.58-.05-1.17-.09-1.76-.12-.59-.03-1.14-.05-1.66-.05-.46,0-1.01.02-1.64.05-.63.04-1.2.08-1.71.12-.05-.23-.07-.42-.07-.56,0-.33.13-.51.38-.56.84-.16,1.4-.34,1.69-.52.29-.19.44-.51.44-.98v-17.91c0-.37-.13-.66-.4-.85-.27-.2-.82-.35-1.66-.47-.26-.05-.38-.24-.38-.59,0-.12.01-.22.03-.31,0-.07.01-.15.04-.24.46.05.91.08,1.32.1.37.02.77.04,1.19.05.42.01.79.02,1.12.02.67,0,1.12.02,1.34.07.22.05.4.16.54.35l12.51,16.69Z"/><path class="c" d="m218.75,366.64c-1.05.19-2.11.33-3.21.44s-2.37.16-3.83.16c-2,0-3.73-.3-5.21-.91-1.48-.6-2.7-1.43-3.68-2.47s-1.7-2.28-2.18-3.71c-.48-1.43-.72-2.98-.72-4.65,0-1.39.24-2.79.72-4.18.48-1.39,1.2-2.65,2.16-3.76.96-1.12,2.18-2.03,3.64-2.74,1.46-.71,3.17-1.06,5.12-1.06.7,0,1.36.02,2,.05.64.03,1.27.1,1.9.19.63.09,1.26.2,1.9.33.64.13,1.33.28,2.07.47.05.81.13,1.66.26,2.53.13.87.3,1.73.51,2.56-.05.05-.14.08-.28.1-.14.02-.26.04-.35.04-.37,0-.6-.15-.7-.45-.42-1.56-1.13-2.67-2.13-3.35-1-.67-2.43-1.01-4.29-1.01-1.49,0-2.79.24-3.9.73s-2.04,1.16-2.77,2c-.73.85-1.28,1.86-1.66,3.03-.37,1.17-.56,2.45-.56,3.82,0,1.6.24,3.08.71,4.43.48,1.35,1.13,2.51,1.95,3.48.82.98,1.8,1.73,2.93,2.27,1.13.53,2.35.8,3.68.8.67,0,1.35-.05,2.04-.14.68-.09,1.26-.21,1.73-.35v-5.33c0-.63-.19-1.06-.56-1.31-.37-.24-1-.42-1.88-.54-.19-.02-.31-.1-.38-.24-.07-.14-.1-.28-.1-.42,0-.19.02-.37.07-.56.67.05,1.42.09,2.23.12.81.04,1.52.05,2.13.05s1.29-.02,2.07-.05c.78-.03,1.46-.07,2.04-.12.05.23.07.42.07.56,0,.23-.04.39-.12.47s-.18.13-.3.16c-.74.09-1.26.25-1.55.47-.29.22-.44.56-.44,1.03v6.2c0,.21-.06.38-.17.52-.12.14-.44.26-.98.35Z"/><path class="c" d="m250.94,349.64c-.23.05-.41.07-.52.07-.3,0-.52-.06-.66-.17-.14-.12-.24-.24-.31-.38-.6-1.32-1.32-2.29-2.16-2.89-.84-.6-1.97-.91-3.42-.91-.56,0-1.09.08-1.59.23-.5.15-.94.37-1.31.66-.37.29-.67.64-.89,1.06-.22.42-.33.88-.33,1.39,0,1.09.46,1.99,1.38,2.68.92.7,2.27,1.41,4.06,2.13,2.23.88,3.87,1.86,4.93,2.94,1.06,1.08,1.59,2.41,1.59,3.99,0,.95-.15,1.84-.44,2.67-.29.82-.74,1.55-1.36,2.16s-1.41,1.1-2.39,1.45-2.15.52-3.52.52c-1.44,0-2.75-.15-3.92-.45-1.17-.3-2.17-.7-2.98-1.18-.07-.98-.17-1.92-.31-2.82-.14-.91-.3-1.81-.49-2.72.16-.07.36-.1.59-.1.28,0,.49.06.65.19.15.13.28.33.4.61.58,1.67,1.33,2.9,2.25,3.69.92.79,2.2,1.18,3.85,1.18.74,0,1.39-.1,1.95-.31s1.02-.5,1.39-.87c.37-.37.65-.79.84-1.25.19-.46.28-.96.28-1.5,0-1.21-.41-2.16-1.24-2.86-.83-.7-2-1.32-3.54-1.88-1-.37-1.91-.76-2.72-1.17-.81-.41-1.51-.88-2.09-1.41-.58-.53-1.03-1.16-1.34-1.86-.31-.71-.47-1.55-.47-2.53,0-.86.16-1.67.47-2.42.31-.75.77-1.41,1.36-1.97.59-.56,1.31-1,2.14-1.32.84-.33,1.78-.49,2.82-.49s2.14.1,3.14.31c1,.21,2.13.56,3.38,1.05.05.7.11,1.45.19,2.25.08.8.19,1.55.33,2.25Z"/><path class="c" d="m268.26,345.6v18.61c0,.53.22.91.66,1.13.44.22,1.19.39,2.23.51.25,0,.38.19.38.56,0,.16-.02.36-.07.59-.74-.05-1.53-.09-2.35-.12-.82-.03-1.66-.05-2.49-.05s-1.64.02-2.49.05c-.85.04-1.64.08-2.39.12-.05-.23-.07-.43-.07-.59,0-.32.12-.51.35-.56,1.05-.14,1.8-.31,2.27-.52.46-.21.7-.58.7-1.12v-18.61h-3.59c-.7,0-1.28.07-1.76.21-.48.14-.89.35-1.24.63s-.65.64-.91,1.08c-.26.44-.52.95-.8,1.53-.05.12-.12.2-.23.24-.1.05-.2.07-.3.07-.26,0-.48-.07-.66-.21.23-.84.41-1.58.52-2.23.12-.65.22-1.19.31-1.62.09-.43.19-.76.3-.99.11-.23.27-.35.51-.35.16,0,.39.01.7.04.3.02.62.05.96.07.34.02.68.05,1.03.07.35.02.67.04.98.04h11.64c.28,0,.59-.01.94-.04.35-.02.7-.05,1.05-.07.35-.02.67-.05.96-.07s.53-.04.72-.04c.23,0,.4.12.51.37.1.24.2.59.3,1.03.09.44.19.99.3,1.64.1.65.28,1.37.54,2.16-.12.05-.23.09-.33.14-.11.05-.23.07-.37.07-.09,0-.2-.02-.31-.07-.12-.05-.2-.13-.24-.24-.26-.58-.51-1.09-.77-1.53-.26-.44-.55-.8-.89-1.08s-.74-.49-1.22-.63c-.48-.14-1.06-.21-1.76-.21h-3.59Z"/><path class="c" d="m292.03,358.52h-7.77l-2.23,5.61c-.12.28-.17.51-.17.7,0,.49.71.84,2.13,1.05.16.02.27.09.33.19.06.1.09.23.09.37s-.02.33-.07.56c-.63-.05-1.29-.09-1.99-.12-.7-.03-1.38-.05-2.06-.05-.46,0-.94.01-1.43.04-.49.02-1,.07-1.53.14-.05-.19-.07-.37-.07-.56,0-.16.03-.3.09-.42.06-.12.18-.19.37-.21.72-.12,1.26-.26,1.62-.44.36-.17.62-.45.78-.82l8.4-20.21c.16-.39.38-.59.66-.59.09,0,.23.02.42.07l8.43,20.84c.14.33.45.58.94.77.49.19.96.31,1.43.38.14.05.25.11.33.19s.12.23.12.44c0,.14-.02.33-.07.56-.74-.05-1.48-.09-2.2-.12-.72-.03-1.39-.05-2.02-.05s-1.39.02-2.23.05c-.84.04-1.59.08-2.27.12-.05-.23-.07-.42-.07-.56,0-.21.04-.35.12-.44.08-.08.16-.12.23-.12.6-.12,1.09-.25,1.46-.4.37-.15.56-.38.56-.68,0-.14-.05-.31-.14-.52l-2.2-5.75Zm-.56-1.43l-3.24-8.54-3.38,8.54h6.62Z"/><path class="c" d="m316.32,354.73c.74.09,1.49.26,2.23.51.74.24,1.42.59,2.02,1.03.6.44,1.09.99,1.46,1.66.37.66.56,1.45.56,2.35,0,1.02-.19,1.94-.58,2.75-.38.81-.93,1.5-1.64,2.06s-1.56.99-2.56,1.29c-1,.3-2.1.45-3.31.45h-5.51c-.39,0-.84.01-1.34.04-.5.02-.97.05-1.41.07-.51.02-1.03.05-1.57.07-.02-.05-.04-.12-.04-.21-.02-.05-.03-.1-.03-.17v-.17c0-.33.13-.51.38-.56.91-.19,1.53-.37,1.88-.54.35-.17.52-.49.52-.96v-17.74c0-.23-.04-.42-.12-.58-.08-.15-.22-.28-.4-.38-.19-.1-.43-.2-.73-.28s-.69-.17-1.15-.26c-.26-.05-.38-.27-.38-.66,0-.12.01-.21.03-.28,0-.07.01-.14.04-.21.7.05,1.45.09,2.25.12.8.04,1.48.05,2.04.05h4.29c1.3,0,2.41.15,3.33.44.92.29,1.67.69,2.25,1.2.58.51,1,1.1,1.27,1.76.27.66.4,1.35.4,2.07,0,.53-.11,1.06-.31,1.57-.21.51-.49.99-.85,1.43-.36.44-.8.84-1.31,1.19-.51.35-1.08.62-1.71.8v.1Zm-5.12-.45c2.04,0,3.51-.36,4.41-1.08.89-.72,1.34-1.86,1.34-3.42,0-1.42-.45-2.47-1.34-3.15-.9-.68-2.36-1.03-4.41-1.03h-.52v8.68h.52Zm-.52,9.86c0,.26.08.47.24.63.16.16.37.29.61.38s.51.16.78.19c.28.03.55.05.8.05.88,0,1.68-.07,2.4-.21.72-.14,1.34-.38,1.85-.73s.91-.82,1.19-1.41c.28-.59.42-1.34.42-2.25,0-1.67-.58-2.94-1.73-3.8s-2.72-1.29-4.72-1.29h-1.85v8.43Z"/><path class="c" d="m333.54,364.31c0,.4.17.67.52.84.35.16.82.24,1.43.24h3.8c.67,0,1.26-.09,1.74-.26s.91-.42,1.25-.75c.35-.33.66-.73.92-1.2.27-.48.51-1.02.72-1.62.07-.19.21-.28.42-.28.12,0,.24.03.37.09.13.06.26.12.4.19-.16.7-.32,1.43-.47,2.21-.15.78-.28,1.66-.4,2.63-.02.26-.09.42-.21.49-.12.07-.26.1-.42.1-.39,0-.89-.03-1.48-.09-.59-.06-1.11-.09-1.55-.09h-8.71c-.53,0-1.21.02-2.02.05-.81.04-1.59.08-2.34.12-.05-.23-.07-.42-.07-.56,0-.33.12-.51.35-.56.95-.16,1.6-.34,1.95-.54.35-.2.52-.51.52-.92v-17.77c0-.46-.16-.8-.49-.99-.33-.2-.95-.37-1.88-.51-.12-.02-.2-.09-.26-.19-.06-.1-.09-.23-.09-.37,0-.16.02-.36.07-.59.79.05,1.57.09,2.33.12.77.04,1.42.05,1.95.05.79,0,1.63-.02,2.51-.05.88-.03,1.67-.07,2.37-.12.05.23.07.42.07.56,0,.4-.13.6-.38.63-1,.12-1.74.28-2.21.51-.48.22-.72.62-.72,1.2v17.42Z"/><path class="c" d="m354.97,345.6v8.92h5.44c.46,0,.8-.23.99-.68.2-.45.35-1,.47-1.66.07-.3.28-.45.63-.45.07,0,.16.01.28.04s.21.05.28.07c-.05.51-.09,1.09-.12,1.74-.03.65-.05,1.22-.05,1.71,0,.4.01.88.04,1.45.02.57.07,1.21.14,1.93-.19.05-.36.07-.52.07-.37,0-.59-.15-.66-.45-.12-.65-.27-1.2-.47-1.66-.2-.45-.53-.68-.99-.68h-5.44v8.22c0,.49.31.81.94.98.63.16,1.66.24,3.1.24h1.92c.67,0,1.26-.1,1.76-.3.5-.2.94-.46,1.32-.8.38-.34.73-.74,1.03-1.2.3-.46.59-.98.87-1.53.07-.16.24-.24.52-.24.12,0,.24.04.37.1s.25.14.37.21c-.21.44-.39.97-.54,1.59-.15.62-.3,1.2-.44,1.76-.14.56-.28,1.03-.43,1.43-.15.4-.34.59-.58.59-.19,0-.45-.01-.8-.03-.35-.02-.73-.04-1.13-.05-.41-.01-.82-.03-1.24-.05-.42-.02-.78-.04-1.08-.04h-7.63c-.67,0-1.39.02-2.16.05-.77.04-1.5.08-2.2.12-.05-.23-.07-.42-.07-.56,0-.33.12-.51.35-.56.88-.16,1.52-.34,1.9-.52.38-.19.58-.51.58-.98v-17.74c0-.46-.17-.78-.51-.96s-.99-.35-1.97-.54c-.23-.05-.35-.24-.35-.59,0-.12,0-.21.02-.3.01-.08.03-.17.05-.26,1,.07,1.84.12,2.51.14.67.02,1.28.04,1.81.04h6.87c1.05,0,1.95-.04,2.72-.1s1.28-.1,1.53-.1c.3,0,.51.19.61.58.1.38.19.84.26,1.38.07.53.15,1.1.24,1.71.09.6.27,1.12.52,1.53-.19.14-.39.21-.63.21-.3,0-.5-.1-.59-.31-.28-.6-.55-1.12-.8-1.55-.26-.43-.55-.78-.89-1.06-.34-.28-.74-.49-1.22-.63-.48-.14-1.06-.21-1.76-.21h-5.16Z"/><path class="c" d="m386.82,349.64c-.23.05-.41.07-.52.07-.3,0-.52-.06-.66-.17-.14-.12-.24-.24-.31-.38-.6-1.32-1.32-2.29-2.16-2.89-.84-.6-1.97-.91-3.42-.91-.56,0-1.09.08-1.59.23-.5.15-.94.37-1.31.66-.37.29-.67.64-.89,1.06-.22.42-.33.88-.33,1.39,0,1.09.46,1.99,1.38,2.68.92.7,2.27,1.41,4.06,2.13,2.23.88,3.87,1.86,4.93,2.94,1.06,1.08,1.59,2.41,1.59,3.99,0,.95-.15,1.84-.44,2.67-.29.82-.74,1.55-1.36,2.16s-1.41,1.1-2.39,1.45-2.15.52-3.52.52c-1.44,0-2.75-.15-3.92-.45-1.17-.3-2.17-.7-2.98-1.18-.07-.98-.17-1.92-.31-2.82-.14-.91-.3-1.81-.49-2.72.16-.07.36-.1.59-.1.28,0,.49.06.65.19.15.13.28.33.4.61.58,1.67,1.33,2.9,2.25,3.69.92.79,2.2,1.18,3.85,1.18.74,0,1.39-.1,1.95-.31s1.02-.5,1.39-.87c.37-.37.65-.79.84-1.25.19-.46.28-.96.28-1.5,0-1.21-.41-2.16-1.24-2.86-.83-.7-2-1.32-3.54-1.88-1-.37-1.91-.76-2.72-1.17-.81-.41-1.51-.88-2.09-1.41-.58-.53-1.03-1.16-1.34-1.86-.31-.71-.47-1.55-.47-2.53,0-.86.16-1.67.47-2.42.31-.75.77-1.41,1.36-1.97.59-.56,1.31-1,2.14-1.32.84-.33,1.78-.49,2.82-.49s2.14.1,3.14.31c1,.21,2.13.56,3.38,1.05.05.7.11,1.45.19,2.25.08.8.19,1.55.33,2.25Z"/></svg>