<?xml version="1.0" encoding="UTF-8"?><svg id="a" xmlns="http://www.w3.org/2000/svg" viewBox="0 0 78.62 91.69"><defs><style>.b{fill:#fff;stroke-width:0px;}</style></defs><path class="b" d="m1.64,21.68l-1.12,1.85-.52-.32,2.59-4.27.52.32-1.12,1.85,5.33,3.23-.35.57-5.33-3.23Z"/><path class="b" d="m5.3,15.37l.46-.49,2.25,2.15,2.78-2.91-2.25-2.15.46-.49,4.95,4.72-.46.49-2.26-2.16-2.78,2.91,2.26,2.16-.46.49-4.95-4.72Z"/><path class="b" d="m16.84,13.88l-3.76-5.72,2.19-1.44c.24-.16.49-.26.75-.32.26-.05.53-.06.78-.01.26.04.5.14.73.28.23.15.42.34.58.58.13.2.22.41.27.62.05.21.06.42.04.63-.02.21-.08.41-.16.61-.09.2-.2.38-.35.55l2.83,1.63-.64.42-2.75-1.59-1.51,1,1.56,2.37-.56.37Zm.26-4.27c.16-.1.29-.23.4-.38.11-.15.18-.32.22-.5.04-.18.05-.36.02-.55-.03-.19-.1-.37-.22-.55-.11-.17-.24-.3-.4-.4-.16-.1-.33-.16-.5-.19-.18-.03-.36-.02-.54.02-.18.04-.35.11-.51.21l-1.58,1.04,1.54,2.33,1.59-1.04Z"/><path class="b" d="m21.26,3.46l3.85-1.51.22.57-3.23,1.26.9,2.29,2.68-1.05.23.58-2.68,1.05.92,2.35,3.35-1.31.23.58-3.98,1.56-2.49-6.37Z"/><path class="b" d="m29.77.7l4.08-.7.1.6-3.42.58.41,2.43,2.84-.48.1.61-2.84.48.42,2.49,3.55-.61.1.61-4.21.72-1.15-6.75Z"/><path class="b" d="m48.26,6.87c-.22.14-.46.25-.71.34-.25.09-.52.14-.79.16s-.57,0-.87-.04c-.48-.08-.91-.25-1.3-.5s-.71-.56-.97-.92c-.26-.36-.44-.77-.54-1.23-.1-.46-.11-.93-.03-1.42.09-.5.25-.95.5-1.34.25-.4.55-.72.91-.98.36-.26.76-.44,1.21-.55.45-.11.91-.12,1.39-.04.29.05.57.13.81.23.25.11.47.23.68.38.2.15.38.32.54.5.16.18.29.38.4.59l-.56.38c-.09-.18-.2-.35-.33-.5-.13-.15-.27-.29-.43-.41s-.34-.23-.54-.32c-.2-.09-.42-.15-.65-.19-.39-.07-.77-.06-1.13.03-.36.09-.69.24-.98.45-.29.21-.53.48-.73.8s-.33.68-.4,1.08c-.07.4-.06.79.02,1.16.08.37.22.7.43,1s.46.55.77.75c.31.2.67.34,1.06.4.5.09.95.05,1.36-.1.4-.15.76-.38,1.07-.7l.43.5c-.19.19-.4.36-.62.5Z"/><path class="b" d="m58.17,4.2c.32.34.56.71.72,1.13.16.42.24.86.23,1.32s-.11.93-.32,1.39c-.2.46-.48.86-.82,1.18-.34.32-.72.56-1.13.72s-.86.24-1.32.23-.92-.11-1.37-.31c-.45-.2-.83-.47-1.15-.81-.32-.34-.55-.72-.72-1.13-.16-.42-.24-.86-.23-1.33s.12-.93.32-1.4.48-.85.82-1.17c.34-.32.72-.56,1.14-.72.42-.16.86-.24,1.32-.23.46,0,.92.11,1.37.31.45.2.84.47,1.16.8Zm-2.52-.44c-.37,0-.73.06-1.07.19-.34.13-.64.33-.92.59s-.5.58-.66.95c-.17.37-.25.75-.26,1.13,0,.38.05.74.18,1.08.13.34.32.65.58.92.26.27.56.49.92.65.36.16.72.24,1.09.24.37,0,.73-.06,1.07-.19.34-.13.65-.33.92-.59s.5-.58.66-.95.25-.75.26-1.13c0-.38-.05-.74-.18-1.08-.13-.34-.32-.64-.58-.92-.26-.27-.56-.49-.92-.65s-.72-.24-1.09-.24Z"/><path class="b" d="m64.3,7.53l1.78,1.4c.38.3.68.65.9,1.05.22.4.36.82.41,1.25.05.43.02.87-.1,1.3-.12.44-.32.84-.62,1.21-.3.38-.64.68-1.04.89s-.81.35-1.24.4c-.44.05-.87.02-1.31-.1-.44-.12-.85-.33-1.23-.63l-1.78-1.4,4.22-5.38Zm-2.12,6.25c.31.24.64.41.99.51.36.1.71.13,1.07.1.36-.04.7-.15,1.02-.33.33-.18.61-.43.86-.75.25-.32.42-.65.52-1.01s.12-.71.07-1.06-.16-.69-.34-1.01c-.18-.32-.43-.61-.74-.85l-1.19-.94-3.45,4.4,1.19.94Z"/><path class="b" d="m72.1,14.48l2.62,3.2-.47.39-2.2-2.68-1.9,1.56,1.83,2.23-.48.39-1.83-2.23-1.95,1.6,2.28,2.79-.48.39-2.71-3.31,5.29-4.34Z"/><path class="b" d="m77.92,24.29c0-.28-.08-.56-.23-.84-.1-.19-.22-.35-.35-.47-.13-.12-.27-.22-.42-.28-.15-.06-.3-.09-.46-.09-.16,0-.31.05-.46.13-.17.09-.3.21-.38.35-.08.14-.13.3-.16.47-.02.17-.03.37-.02.58.01.21.03.44.04.67.02.28.04.55.05.82.01.26,0,.51-.06.74-.05.23-.14.45-.27.64s-.33.36-.6.51c-.22.12-.45.18-.69.2-.24.02-.48-.02-.72-.1-.24-.09-.46-.23-.68-.42s-.41-.45-.57-.76c-.12-.22-.2-.44-.25-.66s-.08-.45-.07-.67c0-.22.04-.43.11-.64.06-.2.15-.39.26-.57l.61.32c-.2.31-.3.63-.31.96-.01.33.07.67.25,1,.1.19.22.36.36.49.14.13.28.23.43.29.15.06.31.09.47.09.16,0,.31-.04.45-.12.18-.1.32-.22.41-.37s.15-.31.18-.5c.03-.19.04-.39.03-.6-.01-.22-.03-.45-.05-.7-.02-.25-.04-.5-.05-.75-.01-.25,0-.49.05-.72.04-.23.13-.44.26-.64.13-.2.32-.36.59-.51.21-.11.44-.18.67-.19.24-.02.47.02.7.11.23.09.45.22.66.41s.39.42.54.71c.09.17.16.35.22.55.05.19.08.39.09.58s-.02.39-.07.59c-.05.19-.14.38-.26.56l-.56-.29c.17-.29.25-.58.25-.86Z"/><path class="b" d="m7.65,68.51c-.03-.28-.12-.56-.29-.82-.11-.18-.24-.33-.38-.44-.14-.11-.29-.2-.44-.25-.15-.05-.31-.07-.46-.05-.15.02-.3.07-.45.16-.16.1-.28.23-.35.37-.07.14-.11.3-.12.48-.01.18,0,.37.03.58.03.21.06.43.09.67.05.28.08.55.11.81.03.26.03.51,0,.74-.03.24-.11.45-.22.66-.12.2-.3.39-.56.55-.21.13-.43.22-.67.25-.24.04-.48.02-.72-.05-.24-.07-.48-.19-.71-.37-.23-.18-.44-.42-.63-.72-.13-.21-.23-.42-.3-.64-.07-.22-.11-.44-.12-.66,0-.22.01-.43.06-.64.05-.21.12-.4.22-.59l.64.28c-.17.32-.25.65-.24.98,0,.33.12.66.32.98.12.19.25.34.39.46.14.12.29.21.45.26.15.05.31.07.47.05.16-.02.31-.07.44-.15.18-.11.3-.24.38-.4.08-.15.13-.32.14-.51.02-.19,0-.39-.02-.6-.03-.22-.06-.45-.1-.69-.04-.25-.08-.5-.11-.75-.03-.25-.03-.49,0-.72.03-.23.1-.45.21-.66s.29-.39.55-.55c.2-.13.42-.21.66-.24.24-.03.47-.02.71.05.24.07.47.19.69.36.22.17.42.39.59.67.1.16.19.34.26.53.07.19.11.38.13.57.02.2,0,.39-.03.59-.04.2-.11.39-.22.58l-.58-.24c.15-.3.21-.59.18-.88Z"/><path class="b" d="m9.39,75.41l.97-4.28.53.56-.82,3.54,3.58-.64.53.56-4.32.75-2.31,2.2-.46-.49,2.31-2.2Z"/><path class="b" d="m20.83,79.94l-3.8,5.69-.47-.31-.35-6.97-3.11,4.66-.55-.37,3.8-5.69.47.31.35,6.97,3.11-4.66.55.37Z"/><path class="b" d="m24.12,81.6l2.13.78c.46.17.85.41,1.18.72.33.31.59.66.78,1.06.19.4.29.82.31,1.27.02.45-.05.9-.21,1.34-.16.45-.4.84-.71,1.17-.31.33-.66.59-1.06.77-.4.18-.82.29-1.28.31-.45.02-.91-.05-1.37-.21l-2.13-.78,2.34-6.43Zm-.07,6.59c.37.13.73.19,1.11.18.37-.01.72-.09,1.05-.24.33-.15.62-.36.87-.63.26-.27.45-.6.59-.98.14-.38.2-.75.18-1.12-.02-.37-.11-.71-.26-1.03-.15-.32-.37-.6-.64-.86-.27-.25-.6-.45-.97-.58l-1.43-.52-1.92,5.26,1.43.52Z"/><path class="b" d="m32.81,84.18l.66.11-1.13,6.75-.66-.11,1.13-6.75Z"/><path class="b" d="m42.66,90.81c-.19.18-.4.33-.64.46-.23.13-.48.23-.75.3-.27.07-.56.11-.86.12-.49,0-.94-.08-1.37-.25-.43-.17-.8-.42-1.12-.73s-.57-.68-.76-1.11c-.19-.43-.28-.89-.29-1.39,0-.51.07-.98.25-1.41.17-.43.41-.81.72-1.13.31-.32.67-.57,1.09-.76.42-.19.87-.29,1.36-.29.3,0,.58.02.84.08.26.06.51.14.73.25.23.11.43.24.62.39.19.15.35.32.5.5l-.48.47c-.13-.16-.26-.3-.42-.43-.15-.13-.32-.24-.5-.33-.18-.09-.38-.16-.59-.21s-.44-.07-.68-.07c-.4,0-.76.08-1.1.24-.34.15-.63.36-.88.62-.25.26-.44.57-.57.92-.13.35-.2.73-.19,1.14,0,.41.08.79.23,1.14.15.35.35.65.6.91.25.26.55.45.89.59.34.14.72.21,1.12.2.51,0,.94-.12,1.31-.35.37-.22.68-.52.93-.88l.51.41c-.15.22-.32.42-.52.6Z"/><path class="b" d="m47.86,83.75l.69-.17,4.24,6.01-.67.16-1.33-1.87-2.92.71-.32,2.27-.68.17.99-7.29Zm2.56,3.58l-2.03-2.9-.45,3.51,2.49-.61Z"/><path class="b" d="m54.78,82.07l-1.97.89-.25-.56,4.55-2.07.25.56-1.97.89,2.58,5.67-.61.28-2.58-5.67Z"/><path class="b" d="m59.79,78.64l.56-.37,3.8,5.69-.56.37-3.8-5.69Z"/><path class="b" d="m66.72,73.05c.43-.18.87-.26,1.32-.26.45,0,.89.09,1.32.27.43.18.82.44,1.18.8.36.36.62.76.8,1.19.18.43.26.87.26,1.32,0,.45-.09.88-.27,1.31-.18.43-.44.82-.79,1.17-.35.35-.74.61-1.17.78-.43.17-.87.26-1.32.26-.45,0-.89-.09-1.32-.27-.43-.18-.83-.45-1.19-.81-.36-.36-.62-.75-.79-1.19-.17-.43-.26-.87-.26-1.32,0-.45.09-.89.27-1.31.18-.43.44-.81.79-1.16.35-.35.74-.61,1.17-.78Zm-1.33,2.18c-.14.35-.21.7-.21,1.06s.07.72.21,1.07c.14.35.36.67.65.96.29.29.61.51.96.65.35.15.71.22,1.07.22.36,0,.72-.06,1.07-.2.35-.14.66-.35.94-.62.28-.27.48-.58.63-.93.14-.35.21-.7.21-1.07,0-.36-.07-.72-.22-1.07-.14-.35-.36-.67-.65-.96s-.61-.51-.96-.65c-.35-.15-.71-.22-1.07-.22s-.72.07-1.06.21c-.35.14-.66.35-.93.62-.28.27-.49.58-.63.93Z"/><path class="b" d="m72.72,64.27l5.91,3.45-.28.49-6.94.76,4.84,2.83-.33.57-5.91-3.45.28-.49,6.94-.76-4.84-2.83.33-.57Z"/><path class="b" d="m40.06,56.36c-1.23-2.62-1.83-5.28-1.69-8-.24-2.9.54-6.98,3.7-9.5,1.05-.84,2.23-1.52,3.34-2.29.39-.27.76-.58,1.02-1.12h-2.41c.74-.87,3.86-1.99,4.72-1.76.16.04.39.12.42.23.35,1.24,1.43,1.12,2.35,1.29,1.24.22,2.41.34,3.08,1.79.29.64,1.43.92,2.22,1.28.69.31,1.45.46,2.14.77.79.35.76.97.07,1.3-.65.32-1.46.53-2.16.47-1.55-.14-3.09-.43-4.61-.76-1.55-.33-2.93-.06-4.18.89-1.12.85-1.26,1.9-.13,2.72,1.14.83,2.44,1.55,3.77,1.99,3.99,1.34,7.83,2.98,11.4,5.15,1.03-.34,1.51-1.13,1.62-2.51.1-1.29.1-2.59.17-3.89.04-.75-.23-1.36-.69-1.93-.33-.42-.61-.88-.9-1.33-.6-.94-1.09-1.98-1.82-2.8-1.41-1.59-2.4-3.43-3.39-5.27-.39-.73-.59-1.42-.21-2.23.24-.51.05-.98-.38-1.37-.65-.59-1.31-1.19-1.9-1.84-.69-.77-1.31-1.6-1.7-2.58-.23-.6-.49-1.19-.75-1.84,1.18-2.12.79-6.23.17-8.15-1.22,3.68-3.26,6.43-5.13,6.92.55-.49,1.1-.99,1.66-1.48-.06-.07-.08-.11-.12-.12-2.17-1.08-4.45-1.83-6.87-2.01-2.09-.16-4.19-.19-6.29-.26-1.81-.06-3.6-.19-5.32-1.05.79,1.16,1.9,1.67,3.13,2.05-4.5.16-8.72-.65-12.38-3.68,1.38,2.51,3.4,4.18,5.83,5.43-2.18.58-4.34.28-6.5-.13-2.17-.41-4.26-1.05-6.14-2.25,1.86,3.13,4.43,5.14,8.34,5.25-.3.17-.48.27-.65.38-1.29.75-2.43,1.66-3.44,2.76-.24.26-.47.54-.7.81,1.12.03,2.25.06,3.37.15,1.62.12,3.14.62,4.59,1.34.02.01.04.04.08.08l.19.16c.82-.83,1.59-2.17,2.13-3.79.42,1.28.68,4.02-.11,5.44.18.43.35.83.5,1.23.26.65.67,1.21,1.13,1.72.39.44.83.84,1.27,1.23.29.26.42.57.26.91-.25.54-.12,1,.14,1.49.66,1.23,1.32,2.46,2.27,3.52.49.55.81,1.24,1.22,1.87.19.3.38.61.6.89.31.38.49.79.46,1.29-.04.87-.05,1.73-.11,2.6-.09,1.2-.61,1.73-1.81,1.81-.83.05-1.66.02-2.49,0-.45-.01-.79-.25-.99-.65-.11-.2-.2-.41-.29-.63-.21-.47-.51-.84-.98-1.08-.66-.34-1.3-.73-1.97-1.06-.55-.27-1.14-.41-1.77-.38-.44.02-.82-.16-1.18-.41-1.29-.89-2.16-2.07-2.59-3.58-.06-.2-.13-.4-.22-.67-.21.14-.4.26-.58.39-1.23.89-1.79,2.2-2.23,3.57-.35,1.1-.52,2.19-.51,3.26.24,1.62.71,3.17,1.55,4.61,1.45,2.47,3.37,4.55,5.44,6.47,1.9,1.76,3.91,3.41,5.93,5.03,3.66,2.95,6.18,6.64,7.55,11.13.29.94.53,1.9.81,2.9.89-2.25,1.85-4.44,2.41-6.77.85-3.55.86-7.06-.55-10.49-.68-1.66-1.42-3.29-2.19-4.91Z"/></svg>