<?xml version="1.0" encoding="UTF-8"?><svg id="a" xmlns="http://www.w3.org/2000/svg" viewBox="0 0 500 500"><defs><style>.b{fill:#fff;stroke-width:0px;}</style></defs><path class="b" d="m249.03,6.88C115.29,6.88,6.88,115.29,6.88,249.03s108.42,242.16,242.16,242.16,242.16-108.42,242.16-242.16S382.77,6.88,249.03,6.88Zm177.35,276.36c-.7,8.96-3.83,14.06-10.5,16.29-23.14-14.09-48.05-24.69-73.94-33.39-8.65-2.91-17.04-7.55-24.44-12.93-7.3-5.3-6.39-12.13.87-17.62,8.12-6.13,17.07-7.93,27.13-5.76,9.88,2.12,19.88,4.01,29.92,4.91,4.59.41,9.81-.99,14.03-3.04,4.46-2.16,4.7-6.14-.44-8.42-4.48-1.99-9.42-2.95-13.87-4.98-5.13-2.34-12.5-4.19-14.4-8.33-4.33-9.41-11.89-10.2-19.95-11.61-5.97-1.05-12.98-.3-15.26-8.34-.2-.71-1.74-1.22-2.75-1.49-5.57-1.51-25.81,5.78-30.62,11.42h15.61c-1.72,3.5-4.09,5.5-6.62,7.24-7.21,4.97-14.85,9.39-21.67,14.83-20.49,16.37-25.55,42.8-23.96,61.62-.88,17.64,3,34.92,10.98,51.9,4.95,10.52,9.77,21.11,14.19,31.85,9.13,22.2,9.03,45.02,3.54,68.01-3.6,15.09-9.8,29.28-15.6,43.89-1.81-6.49-3.41-12.7-5.28-18.82-8.9-29.09-25.23-53.08-48.98-72.18-13.1-10.54-26.15-21.22-38.48-32.63-13.47-12.46-25.91-25.98-35.31-41.98-5.46-9.31-8.53-19.34-10.08-29.88-.03-6.98,1.04-14.03,3.33-21.17,2.85-8.9,6.52-17.4,14.47-23.16,1.17-.85,2.39-1.62,3.77-2.55.56,1.71,1.04,3,1.41,4.32,2.78,9.77,8.44,17.44,16.79,23.18,2.32,1.6,4.8,2.74,7.67,2.63,4.04-.15,7.89.71,11.45,2.48,4.33,2.15,8.47,4.66,12.76,6.9,3.02,1.58,5.01,3.98,6.34,7.03.6,1.37,1.21,2.73,1.9,4.06,1.34,2.61,3.54,4.13,6.44,4.21,5.37.15,10.77.35,16.12.01,7.8-.49,11.16-3.93,11.77-11.73.44-5.6.45-11.23.74-16.84.17-3.25-1.01-5.9-3.01-8.38-1.45-1.8-2.65-3.81-3.91-5.76-2.62-4.06-4.72-8.56-7.89-12.12-6.13-6.89-10.39-14.84-14.7-22.84-1.7-3.17-2.56-6.16-.93-9.67,1.03-2.22.2-4.23-1.67-5.92-2.83-2.57-5.66-5.16-8.22-7.98-3.01-3.32-5.69-6.92-7.35-11.17-1.02-2.6-2.11-5.16-3.27-7.97,5.1-9.2,3.42-26.98.72-35.29-3.48,10.47-8.48,19.19-13.79,24.54l-1.26-1.01c-.27-.28-.37-.46-.51-.53-9.4-4.67-19.28-7.92-29.76-8.71-7.26-.55-14.55-.74-21.83-.96,1.44-1.8,2.93-3.56,4.52-5.27,6.55-7.09,14-13.03,22.34-17.88,1.14-.66,2.29-1.31,4.24-2.43-25.33-.68-42-13.74-54.08-34.04,12.22,7.82,25.81,11.94,39.85,14.61,13.95,2.65,27.99,4.58,42.12.85-15.81-8.13-28.91-18.95-37.84-35.21,23.7,19.66,51.07,24.89,80.26,23.88-7.92-2.48-15.17-5.78-20.27-13.28,11.12,5.62,22.75,6.42,34.47,6.83,13.6.48,27.22.67,40.78,1.69,15.7,1.18,30.47,6.04,44.55,13.03.22.11.37.37.77.8-3.61,3.23-7.2,6.43-10.76,9.61,12.12-3.14,25.35-20.95,33.28-44.84,4.05,12.43,6.56,39.06-1.08,52.82,1.73,4.21,3.37,8.04,4.89,11.93,2.49,6.36,6.5,11.75,11,16.72,3.83,4.23,8.07,8.11,12.31,11.95,2.79,2.53,4.04,5.54,2.49,8.86-2.44,5.25-1.17,9.73,1.39,14.47,6.44,11.98,12.83,23.88,22,34.2,4.74,5.33,7.9,12.07,11.81,18.15,1.88,2.92,3.68,5.92,5.85,8.62,2.99,3.71,4.75,7.68,4.5,12.54-.43,8.4-.45,16.83-1.1,25.21Z"/></svg>